<svg width="200" height="200" viewBox="0 0 529 501" fill="none" xmlns="http://www.w3.org/2000/svg">
<ellipse cx="264.5" cy="250.5" rx="264.5" ry="250.5" fill="black"/>
<path d="M327.69 149.13H147.48V188.5H327.69V149.13Z" fill="#AFAFAF"/>
<path d="M277.69 338.19V206.16H238.32V338.19H277.69Z" fill="#AFAFAF"/>
<path d="M358.01 188.51C368.885 188.51 377.7 179.694 377.7 168.82C377.7 157.946 368.885 149.13 358.01 149.13C347.136 149.13 338.32 157.946 338.32 168.82C338.32 179.694 347.136 188.51 358.01 188.51Z" fill="#AFAFAF"/>
<path d="M195.27 338.87L158.34 240.78L120.77 338.87H93.8401L145.32 205.46H171.08L222.39 338.87H195.27Z" fill="#FF0076"/>
<path d="M395.05 338.87L358.12 240.78L320.55 338.87H293.61L345.1 205.46H370.86L422.16 338.87H395.05Z" fill="#E2D71A"/>
</svg>
